<svg width="31" height="31" viewBox="0 0 31 31" fill="none" xmlns="http://www.w3.org/2000/svg">
<g clip-path="url(#clip0_98_18)">
<path d="M11.625 24.5417C5.16666 26.4792 5.16666 21.3125 2.58333 20.6667M20.6667 28.4167V23.4179C20.7151 22.802 20.6319 22.1829 20.4226 21.6016C20.2132 21.0203 19.8825 20.4903 19.4525 20.0467C23.5083 19.5946 27.7708 18.0575 27.7708 11.005C27.7705 9.20163 27.0768 7.4674 25.8333 6.16127C26.4221 4.58351 26.3805 2.83956 25.7171 1.29169C25.7171 1.29169 24.1929 0.839604 20.6667 3.20335C17.7062 2.401 14.5855 2.401 11.625 3.20335C8.09875 0.839604 6.57458 1.29169 6.57458 1.29169C5.91115 2.83956 5.86951 4.58351 6.45833 6.16127C5.20558 7.47709 4.51117 9.22699 4.52083 11.0438C4.52083 18.0446 8.78333 19.5817 12.8392 20.0854C12.4142 20.5246 12.0865 21.0483 11.8773 21.6224C11.6681 22.1966 11.5821 22.8084 11.625 23.4179V28.4167" stroke="#1E1E1E" stroke-width="3" stroke-linecap="round" stroke-linejoin="round"/>
</g>
<defs>
<clipPath id="clip0_98_18">
<rect width="31" height="31" fill="white"/>
</clipPath>
</defs>
</svg>
