<svg width="31" height="31" viewBox="0 0 31 31" fill="none" xmlns="http://www.w3.org/2000/svg">
<path d="M20.6667 10.3333C22.7221 10.3333 24.6933 11.1498 26.1467 12.6032C27.6001 14.0566 28.4167 16.0278 28.4167 18.0833V27.1249H23.25V18.0833C23.25 17.3981 22.9778 16.741 22.4934 16.2566C22.0089 15.7721 21.3518 15.4999 20.6667 15.4999C19.9815 15.4999 19.3244 15.7721 18.84 16.2566C18.3555 16.741 18.0833 17.3981 18.0833 18.0833V27.1249H12.9167V18.0833C12.9167 16.0278 13.7332 14.0566 15.1866 12.6032C16.64 11.1498 18.6112 10.3333 20.6667 10.3333Z" stroke="#1E1E1E" stroke-width="3.5" stroke-linecap="round" stroke-linejoin="round"/>
<path d="M7.74999 11.6249H2.58333V27.1249H7.74999V11.6249Z" stroke="#1E1E1E" stroke-width="3.5" stroke-linecap="round" stroke-linejoin="round"/>
<path d="M5.16666 7.74992C6.5934 7.74992 7.74999 6.59332 7.74999 5.16659C7.74999 3.73985 6.5934 2.58325 5.16666 2.58325C3.73993 2.58325 2.58333 3.73985 2.58333 5.16659C2.58333 6.59332 3.73993 7.74992 5.16666 7.74992Z" stroke="#1E1E1E" stroke-width="3.5" stroke-linecap="round" stroke-linejoin="round"/>
</svg>
